<mxfile host="app.diagrams.net" agent="Mozilla/5.0 (X11; Ubuntu; Linux x86_64; rv:133.0) Gecko/20100101 Firefox/133.0" version="25.0.3">
  <diagram name="PÃ¡gina-1" id="eeioJ6vw3OTsjW32ahrZ">
    <mxGraphModel grid="1" page="1" gridSize="10" guides="1" tooltips="1" connect="1" arrows="1" fold="1" pageScale="1" pageWidth="827" pageHeight="1169" math="0" shadow="0">
      <root>
        <mxCell id="0" />
        <mxCell id="1" parent="0" />
        <mxCell id="rF-Vydb3TdsJEgR1-0ug-1" value="" style="rounded=0;whiteSpace=wrap;html=1;fillColor=#f5f5f5;strokeColor=#666666;fontColor=#333333;" vertex="1" parent="1">
          <mxGeometry x="160" y="110" width="280" height="240" as="geometry" />
        </mxCell>
        <mxCell id="rF-Vydb3TdsJEgR1-0ug-2" value="" style="rounded=0;whiteSpace=wrap;html=1;fillColor=#ffe6cc;strokeColor=#d79b00;" vertex="1" parent="1">
          <mxGeometry x="180" y="160" width="240" height="130" as="geometry" />
        </mxCell>
        <mxCell id="rF-Vydb3TdsJEgR1-0ug-4" value="&lt;font style=&quot;font-size: 14px;&quot;&gt;IPv6 Header&lt;/font&gt;" style="text;html=1;align=center;verticalAlign=middle;whiteSpace=wrap;rounded=0;" vertex="1" parent="1">
          <mxGeometry x="170" y="120" width="80" height="30" as="geometry" />
        </mxCell>
        <mxCell id="38OPnReQq1MQxTD-FUi3-1" value="&lt;font style=&quot;font-size: 14px;&quot;&gt;Segment Routing Header&lt;/font&gt;" style="text;html=1;align=center;verticalAlign=middle;whiteSpace=wrap;rounded=0;" vertex="1" parent="1">
          <mxGeometry x="180" y="160" width="180" height="30" as="geometry" />
        </mxCell>
        <mxCell id="38OPnReQq1MQxTD-FUi3-2" value="Last Entry" style="text;html=1;align=center;verticalAlign=middle;whiteSpace=wrap;rounded=0;" vertex="1" parent="1">
          <mxGeometry x="180" y="190" width="60" height="30" as="geometry" />
        </mxCell>
        <mxCell id="38OPnReQq1MQxTD-FUi3-4" value="" style="endArrow=none;html=1;rounded=0;entryX=0.998;entryY=0.4;entryDx=0;entryDy=0;exitX=0.006;exitY=0.403;exitDx=0;exitDy=0;entryPerimeter=0;exitPerimeter=0;" edge="1" parent="1" source="rF-Vydb3TdsJEgR1-0ug-2" target="rF-Vydb3TdsJEgR1-0ug-2">
          <mxGeometry width="50" height="50" relative="1" as="geometry">
            <mxPoint x="180" y="220" as="sourcePoint" />
            <mxPoint x="230" y="170" as="targetPoint" />
          </mxGeometry>
        </mxCell>
        <mxCell id="38OPnReQq1MQxTD-FUi3-5" value="" style="endArrow=none;html=1;rounded=0;exitX=0.004;exitY=0.597;exitDx=0;exitDy=0;entryX=1;entryY=0.597;entryDx=0;entryDy=0;exitPerimeter=0;entryPerimeter=0;" edge="1" parent="1" source="rF-Vydb3TdsJEgR1-0ug-2" target="rF-Vydb3TdsJEgR1-0ug-2">
          <mxGeometry width="50" height="50" relative="1" as="geometry">
            <mxPoint x="185" y="250" as="sourcePoint" />
            <mxPoint x="235" y="200" as="targetPoint" />
          </mxGeometry>
        </mxCell>
        <mxCell id="38OPnReQq1MQxTD-FUi3-6" value="Segment List [0]" style="text;html=1;align=center;verticalAlign=middle;whiteSpace=wrap;rounded=0;" vertex="1" parent="1">
          <mxGeometry x="250" y="210" width="90" height="30" as="geometry" />
        </mxCell>
        <mxCell id="38OPnReQq1MQxTD-FUi3-8" value="Segment List [n]" style="text;html=1;align=center;verticalAlign=middle;whiteSpace=wrap;rounded=0;" vertex="1" parent="1">
          <mxGeometry x="250" y="265" width="90" height="30" as="geometry" />
        </mxCell>
        <mxCell id="38OPnReQq1MQxTD-FUi3-9" value="..." style="text;html=1;align=center;verticalAlign=middle;whiteSpace=wrap;rounded=0;" vertex="1" parent="1">
          <mxGeometry x="250" y="235" width="90" height="30" as="geometry" />
        </mxCell>
        <mxCell id="38OPnReQq1MQxTD-FUi3-10" value="" style="endArrow=none;html=1;rounded=0;exitX=0.004;exitY=0.597;exitDx=0;exitDy=0;entryX=1;entryY=0.597;entryDx=0;entryDy=0;exitPerimeter=0;entryPerimeter=0;" edge="1" parent="1">
          <mxGeometry width="50" height="50" relative="1" as="geometry">
            <mxPoint x="180" y="265" as="sourcePoint" />
            <mxPoint x="419" y="265" as="targetPoint" />
          </mxGeometry>
        </mxCell>
        <mxCell id="38OPnReQq1MQxTD-FUi3-11" value="" style="endArrow=none;html=1;rounded=0;" edge="1" parent="1">
          <mxGeometry width="50" height="50" relative="1" as="geometry">
            <mxPoint x="160" y="310" as="sourcePoint" />
            <mxPoint x="440" y="309" as="targetPoint" />
          </mxGeometry>
        </mxCell>
        <mxCell id="38OPnReQq1MQxTD-FUi3-13" value="Flags" style="text;html=1;align=center;verticalAlign=middle;whiteSpace=wrap;rounded=0;" vertex="1" parent="1">
          <mxGeometry x="260" y="190" width="60" height="30" as="geometry" />
        </mxCell>
        <mxCell id="38OPnReQq1MQxTD-FUi3-14" value="Tag" style="text;html=1;align=center;verticalAlign=middle;whiteSpace=wrap;rounded=0;" vertex="1" parent="1">
          <mxGeometry x="340" y="190" width="60" height="30" as="geometry" />
        </mxCell>
        <mxCell id="38OPnReQq1MQxTD-FUi3-16" value="&lt;font style=&quot;font-size: 14px;&quot;&gt;Payload&lt;/font&gt;" style="text;html=1;align=center;verticalAlign=middle;whiteSpace=wrap;rounded=0;" vertex="1" parent="1">
          <mxGeometry x="270" y="310" width="60" height="40" as="geometry" />
        </mxCell>
      </root>
    </mxGraphModel>
  </diagram>
</mxfile>
